<svg id="Layer_3" data-name="Layer 3" xmlns="http://www.w3.org/2000/svg" viewBox="0 0 556.6 658.93"><defs><style>.cls-1,.cls-14{fill:#060606;}.cls-2{fill:#edbf27;}.cls-3{fill:#fff;}.cls-10,.cls-11,.cls-12,.cls-13,.cls-14,.cls-3,.cls-5,.cls-6,.cls-7,.cls-8,.cls-9{fill-rule:evenodd;}.cls-4{fill:#e1a026;}.cls-5{fill:#d67c2d;}.cls-6{fill:#222221;stroke:#fff;stroke-miterlimit:10;stroke-width:5.67px;}.cls-7{fill:#939580;}.cls-8{fill:#909486;}.cls-9{fill:#dfddde;}.cls-10{fill:#efc51c;}.cls-11{fill:#2c211b;}.cls-12{fill:#008dc7;}.cls-13{fill:#009de0;}</style></defs><path class="cls-1" d="M208.17,421.3l-.41.49q-19.63,23.49-27.18,58.08-22.89-8-36.32-5Q128,478.39,125.41,496.5l-.21,1.42.76,1.23q10,16.27,30.36,35.05,20.18,18.56,50.73,39.74l.23.16.24.12q11.23,5.71,20.42-3.65,7.67-7.85,13.49-27.09,4.26-5.18,7.85-10.54a52.92,52.92,0,0,0,11.19,11,61.83,61.83,0,0,0,10,5.89q-15.23,6.84-20.9,24.1a61.72,61.72,0,0,0-1.66,6.25q-4,18.43,12.19,37.83,15.34,18.39,49.39,38,34.22,19.9,56.07,16.5,22.89-3.56,31.54-31.46a89,89,0,0,0,3.51-15c22.13,13.95,42.05,13.32,60.14.39,6.89-4.92,13.47-11.68,19.76-20.13a70.21,70.21,0,0,0,12.89,7.47A52.5,52.5,0,0,0,510.14,618l1.86.16,1.32-1.34A300.25,300.25,0,0,0,567.17,543a46.9,46.9,0,0,0,8.54-18l1-2.45q22.38-52.73,26.15-116.68l0-.5-.08-.43q-2.55-14.53-16.63-24.63-12.66-9.09-34.75-14.52a15.22,15.22,0,0,0-4.11-7.47q14-23.89,16.09-46.49c1.6-17.44-2.12-34.26-11.23-50.58a109.52,109.52,0,0,0-.66-27.67c-2.46-15.26-8.6-28-18.29-35.92l-1.17-.95-1.52.05a30.76,30.76,0,0,0-16.6,6,62.73,62.73,0,0,0-13.32,13.08q-23.52-10.12-46.84-10.35c-5.47-9-10.82-16.23-17.09-21-7.14-5.44-15.23-7.71-25.55-5.95l-.27.05-.29.09c-12.4,4.07-14.09,21.72-15.77,39.29l-.31,3.19q-6.48,3.53-12.93,7.82l-.27.19-.2.18a43.87,43.87,0,0,0-5.87,6.48,38.62,38.62,0,0,0-3.85,6.55q-20.46,20-25.58,43-4.78,21.42,3.9,45a7.73,7.73,0,0,0-1.43,1.13l-.71.71-.3.94a48.78,48.78,0,0,0-2.23,11,66.8,66.8,0,0,0,.53,13.71l.18,1.48,1.11,1q4.68,4.26,9.62,8.14C342.39,378,331,391.29,322.61,406.85c-.66,1.24-1.3,2.48-1.93,3.75-.6-.74-1.16-1.47-1.67-2.2a26.87,26.87,0,0,1-3.24-6q-5.56-15.24-11.71-23.09-6.94-8.88-15.07-8.92h-.37l-.35.06a36.67,36.67,0,0,0-7.23,2.08q-.81-12.3-1.59-24.61l-2.13-.14q-7-.46-14.18-.29l1.08-45.89a2.51,2.51,0,0,1,.73-1.4,3.78,3.78,0,0,1,1.66-1l32.9-1.8.67-1a11.55,11.55,0,0,0,1.92-5.89,6.19,6.19,0,0,0-2.48-5.15l-.7-.53c-12.12.61-24.64.95-36.7,1.86a10.24,10.24,0,0,0-6.4,3.32,16.63,16.63,0,0,0-3.85,7.06l-.06.24-1.14,50.92-3,.31q-6.94.77-14.09,2.08c0-.32,0-.65,0-1v-.06a30.65,30.65,0,0,0-29.88-31.33h-.06a30.65,30.65,0,0,0-31.33,29.88v.06a30.63,30.63,0,0,0,29.88,31.33h.06a30.55,30.55,0,0,0,9.18-1.19,31.4,31.4,0,0,0,5.14-2q1,8.15,2.18,16.14l-.13.14q-3.95,4.36-4.68,11.86a51.22,51.22,0,0,0,.68,13.18,58.22,58.22,0,0,0-6.05,3.3Z" transform="translate(-51.38 -19.02)"/><circle class="cls-2" cx="282.05" cy="249.69" r="225.82" transform="translate(-145.33 253.55) rotate(-45)"/><path class="cls-3" d="M445.15,412.79a230.64,230.64,0,1,0-163.1,67.57A229.91,229.91,0,0,0,445.15,412.79ZM61.07,249.69A221,221,0,1,1,125.8,405.94,220.26,220.26,0,0,1,61.07,249.69Z" transform="translate(-51.38 -19.02)"/><circle class="cls-4" cx="230.67" cy="230.66" r="212.32"/><path class="cls-5" d="M281.51,211.68c15.42-10.55,15.67-19.47,14.94-37.72-.56-14.25-12.24-27.81-26-31.16-6.53-1.59-26.37-3.36-29.15-3.69-8.68-1-10.08,10.3-16.13,17-12.27,13.61-10.5,35.48,1.9,48.53C235.41,213.41,271.08,218.82,281.51,211.68Z" transform="translate(-51.38 -19.02)"/><path class="cls-5" d="M339.45,136.23c-.65-11.21-15.18-3.58-14.86-4.69C318.77,151.66,340.71,157.94,339.45,136.23Z" transform="translate(-51.38 -19.02)"/><path class="cls-5" d="M423.92,159.32c17.48-10.49-.95-56.49-14-67.27-11.29-9.32-17.31-16.26-32.35-12.74-8.41,2-15.43,10.21-9.36,19,12.19,17.66,13.54,11,17,34.26C388,151.07,403.48,171.59,423.92,159.32Z" transform="translate(-51.38 -19.02)"/><path class="cls-5" d="M320.21,70.53c3.36-6.91,4.91-11.17-1.65-16.43-.74-.59-3.38-1.56-4.26-1.29-11.38,3.49-21.2,1.52-21.2,19.31C293.1,75.24,314,83.31,320.21,70.53Z" transform="translate(-51.38 -19.02)"/><path class="cls-5" d="M224.36,100.09C239,92.77,247.47,82.41,231,70.43c-9.44-6.87-15.94-1.69-24.83-4.9-12.2-6.38-38.29,9.27-19.88,29.9C192,101.81,217,103.76,224.36,100.09Z" transform="translate(-51.38 -19.02)"/><path class="cls-5" d="M164.13,126.91c-.3-6.35-9.38-15.91-16.9-16.23-.75,0-.58-1-1.9-.63-27.17,8.26-18.09,28.31.69,31.74C158.85,144.13,164.8,140.64,164.13,126.91Z" transform="translate(-51.38 -19.02)"/><path class="cls-5" d="M96.7,308.51c15.34,8.59,33-1.55,36.19-17.59,3.93-20,2.48-15.78-1.16-34.47-1.48-7.62-1.26-9.18-2.24-15.59-4.67-30.66-33.88-24.33-36.31-24.53-9.84-.81-17.42,12.46-19.33,20.74-4.55,19.67-9,11.18-.63,36.19C76.33,282.49,88.41,303.86,96.7,308.51Z" transform="translate(-51.38 -19.02)"/><path class="cls-5" d="M156.31,190l-.6-.2c-8.7,0-6.58,8.26-4,13.68C156,212.63,165.87,194.57,156.31,190Z" transform="translate(-51.38 -19.02)"/><path class="cls-5" d="M215.86,290.36c4.35-10.46,14.23-16-3.88-23.56-.82-.34-12.81-1.32-14.18-.36-4.05,2.83-8.61,3.28-4.62,12.92C198.17,291.44,213.74,295.45,215.86,290.36Z" transform="translate(-51.38 -19.02)"/><path class="cls-5" d="M148.89,322.19l-.6-.33c-3.47-.52-17,6.46-4.37,18.29C153.48,349.12,155.45,326.15,148.89,322.19Z" transform="translate(-51.38 -19.02)"/><path class="cls-5" d="M171.76,433.74c6.36,3.36,4.92,3.48,18.64,3.48,14.31,0,20.71-13.43,16.43-23.31-11.85-27.36-18.65-8.66-35.58-19.21-10.14-6.31-29.89-6.13-21.9,8.18C154.36,411.85,163.61,429.44,171.76,433.74Z" transform="translate(-51.38 -19.02)"/><path class="cls-5" d="M312.21,373.44c10,2.92,16.55-7.27,19.51-14.94,5.47-14.22-.87-18-10.68-26.67-1.79-1.59-10.83-5.5-12.87-5.13-14.26,2.6-14.77,9.43-14.41,22.57C294,356.51,304.73,371.26,312.21,373.44Z" transform="translate(-51.38 -19.02)"/><path class="cls-5" d="M381.28,259.84c1-1.07,5.66-13.52,5.58-13.44,4.86-5.27,3.77-17.33-.79-22.37-9.73-10.77-10.84-16.17-29.62-10.05-10.59,3.46-20.42,20.08-23,29.38-1.76,6.3,5.82,35.5,20.13,35.5C368.59,278.86,372.13,269.83,381.28,259.84Z" transform="translate(-51.38 -19.02)"/><path class="cls-6" d="M206.71,419.63l-.63.75C192.32,436.81,183.8,456.29,179,477c-10.78-3.56-24.2-6.69-35.19-4.3-12.36,2.7-18.82,11.19-20.55,23.48l-.31,2.2,1.16,1.9c8,13.12,19.47,25.13,30.75,35.51,15.8,14.54,33.35,27.69,51,39.94l.36.25.37.18c8.53,4.32,16.34,2.7,23-4.08s11.1-18.42,13.89-27.55q3.17-3.85,6-7.93a55.68,55.68,0,0,0,9.78,9.06,61,61,0,0,0,6.5,4.13c-9,5.2-14.85,13.26-18.18,23.41a62.9,62.9,0,0,0-1.72,6.47c-3.23,14.91,3.23,28.42,12.64,39.69,12.9,15.45,32.69,28.46,50,38.46,16.08,9.31,38.37,19.75,57.49,16.78,18.21-2.84,28.07-16.31,33.3-33a101.51,101.51,0,0,0,3.05-12.16c20,11.62,40.2,12.63,59.78-1.37a91.8,91.8,0,0,0,19-18.9,71,71,0,0,0,11.55,6.46A54.55,54.55,0,0,0,510,620.2l2.89.24,2-2.06A303.34,303.34,0,0,0,569,544.23a49.22,49.22,0,0,0,8.77-18.47c.34-.77.67-1.54,1-2.32,15.83-37.3,23.94-77,26.31-117.4l0-.76-.12-.68c-1.95-11.07-8.49-19.55-17.51-26-9.92-7.11-22.46-11.56-34.27-14.55a17.63,17.63,0,0,0-3.16-6c8.1-14.17,14.06-29.64,15.56-46,1.65-18.1-2.44-35.35-11.17-51.24a110.85,110.85,0,0,0-.75-27.54c-2.24-13.92-7.89-28.13-19.06-37.27l-1.8-1.47-2.34.08A33,33,0,0,0,512.74,201,63.63,63.63,0,0,0,500,213.18a122.75,122.75,0,0,0-44.91-9.86c-4.58-7.45-10.06-15.28-17-20.58-8.18-6.24-17.09-8.11-27.23-6.36l-.45.07-.43.14c-15,4.9-16,28.19-17.27,41.15l-.2,2q-6.18,3.42-12.07,7.36l-.41.28-.32.29a45.19,45.19,0,0,0-6.16,6.81,40.29,40.29,0,0,0-3.91,6.56c-12.36,12.18-22.08,26.67-25.9,43.8-3.37,15.11-1.63,30.25,3.44,44.71l-.37.35-1.1,1.1-.46,1.46A52,52,0,0,0,342.9,344a69.87,69.87,0,0,0,.54,14.16l.28,2.28,1.71,1.55q3.63,3.31,7.44,6.41c-13.54,9.75-24.29,22.79-32.18,37.46-.12.22-.24.44-.35.66a22.82,22.82,0,0,1-2.52-4.82c-2.91-8-6.77-17-12-23.69-4.18-5.34-9.71-9.74-16.79-9.76h-.56l-.55.1a39.75,39.75,0,0,0-4.84,1.19q-.72-10.86-1.41-21.71l-.12-1.92-4.05-.26q-6-.41-12.08-.34l1-43.38a.85.85,0,0,1,.11-.14,1.31,1.31,0,0,1,.52-.34l33.72-1.85,1.27-2a13.64,13.64,0,0,0,2.26-7.07,8.33,8.33,0,0,0-3.34-6.9l-1.33-1-.8,0c-12.25.62-24.52.94-36.75,1.87a12.42,12.42,0,0,0-7.82,4,18.62,18.62,0,0,0-4.39,8l-.12.47-1.1,49.24-1.09.11q-5.83.66-11.64,1.64a32.79,32.79,0,0,0-32-31.93h-.08a32.82,32.82,0,0,0-33.56,32v.08a32.83,32.83,0,0,0,32,33.55h.08a33.59,33.59,0,0,0,9.82-1.28c.93-.27,1.84-.57,2.74-.92q.79,6.15,1.67,12.29a22.88,22.88,0,0,0-4.68,12.46,51.44,51.44,0,0,0,.45,12.14q-2.46,1.25-4.8,2.71Z" transform="translate(-51.38 -19.02)"/><path class="cls-7" d="M255.67,348.75c.89-.06,1.78-.12,2.67-.16l.86,0v-.85c.24-14.18-.26-28.55.77-42.69l.06-.78.07-.83c.06-.74.13-1.47.21-2.2a4.17,4.17,0,0,1,.1-.6l.14-.66.31-.66a7.23,7.23,0,0,1,.76-1.21l.44-.56.55-.47a7.44,7.44,0,0,1,.9-.66l.62-.39.66-.26a5.44,5.44,0,0,1,.68-.23l.57-.17v0l31.23-1.71.23-.49a6.41,6.41,0,0,0,.67-2.64,2.89,2.89,0,0,0-.21-1.12l-.26-.58-35.1,1.78-1.57.19.09.14-.59.32a7.64,7.64,0,0,0-1.88,1.47c-.17.18-.34.37-.5.56l-.45.55h0l-.07.11-.06.07h0l-.42.7a13.55,13.55,0,0,0-1.22,2.75l-.26.83.12,0-1.13,50.5Z" transform="translate(-51.38 -19.02)"/><path class="cls-8" d="M354.11,341.37,352.83,340l-.29,1.82c-.15.94-.26,1.88-.33,2.83a56.43,56.43,0,0,0,.33,10.79l0,.35.27.23A163.59,163.59,0,0,0,443,396.61c34.51,4.1,69.23-2.56,100.25-18.07l.3-.16.14-.31c.13-.34.26-.69.38-1a17.59,17.59,0,0,0,.6-9.1,10.53,10.53,0,0,0-1-2.73l-.72-1.38-1.73,2.62-.41.32c-23.22,18.34-60.43,18.5-90.36,14.09,2.27.09,4.55.17,6.83.21a264.43,264.43,0,0,0,32.94-1.2c14.95-1.6,36.13-5.61,46.36-17.69l0-.05,0,0c10-15.24,18-32.51,19.71-50.87a76.62,76.62,0,0,0-5.41-36.1l-1.14-2.83-.61,3q-.91,4.53-2.13,9c-1.53,3.84-6.23,2.47-9.33,1.69-6.37-1.6-12.27-5.86-17-10.36l-4.1-3.95,2.66,5c5.16,9.79,7,21.62,6.69,32.6-.48,15.41-5.46,32.62-15.91,44.24-.46.51-.93,1-1.41,1.49-16.14,16.38-44.16,17.81-65.55,15-29.89-3.94-59.76-16.87-84.75-33.43l-.68-.45-1.05,1.25.56.59a181.93,181.93,0,0,0,31.13,25.52,101.26,101.26,0,0,1-22.53-12.17A83.27,83.27,0,0,1,354.11,341.37Z" transform="translate(-51.38 -19.02)"/><path class="cls-9" d="M354.11,341.37,352.83,340l-.29,1.82c-.15.94-.26,1.88-.33,2.83a56.43,56.43,0,0,0,.33,10.79l0,.35.27.23a163.06,163.06,0,0,0,71.58,37.28q53.88,5.1,56.61-10.1a213.72,213.72,0,0,1-30.57-2.38c2.27.09,4.55.17,6.83.21a264.43,264.43,0,0,0,32.94-1.2c3.59-.39,7.54-.91,11.62-1.65q51.45-32.79,30.72-94.16a46,46,0,0,1-11.78-8.47l-4.1-3.95,2.66,5c5.16,9.79,7,21.62,6.69,32.6-.48,15.41-5.46,32.62-15.91,44.24-.46.51-.93,1-1.41,1.49-16.14,16.38-44.16,17.81-65.55,15-29.89-3.94-59.76-16.87-84.75-33.43l-.68-.45-1.05,1.25.56.59a181.93,181.93,0,0,0,31.13,25.52,101.26,101.26,0,0,1-22.53-12.17A83.27,83.27,0,0,1,354.11,341.37Z" transform="translate(-51.38 -19.02)"/><path class="cls-10" d="M369.51,353.8q-1.92-1.24-3.66-2.48a83.27,83.27,0,0,1-11.74-9.95L352.83,340l-.29,1.82c-.15.94-.26,1.88-.33,2.83a56.43,56.43,0,0,0,.33,10.79l0,.35.27.23c2.08,1.86,4.21,3.67,6.37,5.42q-.46-6.74,1-8.92Q365.08,353.07,369.51,353.8Z" transform="translate(-51.38 -19.02)"/><path class="cls-11" d="M357.1,329.58c6.3,10.61,73.16,32.46,86.87,34.26,19.34,2.55,45.65,1.7,60.31-13.19.42-.42.82-.86,1.22-1.3,9.49-10.55,13.89-26.27,14.33-40.24.4-12.89-2.51-28.47-12.06-37.87-.31-.31-.62-.6-.94-.88-14.77-12.9-33.44-19.7-52.53-23-25.27-4.39-52.46-3.05-77.78.3l-.3,0-.22.21c-11,10.85-19.79,23.78-23.19,39-3.21,14.42-1.05,28.89,4.22,42.54l0,.07Z" transform="translate(-51.38 -19.02)"/><path class="cls-12" d="M418.48,193.71c2.39,4.69,3.7,10.56,4.47,15.74l.16,1,1-.27a113.38,113.38,0,0,1,18.1-3.28l2.39-.21,1.54-.11-.84-1.29c-3.49-5.42-7.72-11.21-12.89-15.14-5.78-4.42-12-5.77-19.25-4.7l-2.62.39,2.3,1.31.46.28A15.92,15.92,0,0,1,418.48,193.71Z" transform="translate(-51.38 -19.02)"/><path class="cls-10" d="M415.3,189.1q11.43,4.22,24.07,17.63c.21.15.42.28.63.42.73-.09,1.47-.17,2.2-.24l2.39-.21,1.54-.11-.84-1.29c-3.49-5.42-7.72-11.21-12.89-15.14-5.78-4.42-12-5.77-19.25-4.7l-2.62.39,2.3,1.31.46.28A11.38,11.38,0,0,1,415.3,189.1Z" transform="translate(-51.38 -19.02)"/><path class="cls-9" d="M413.05,238.43l.17-.67c1.75-7,5.83-12.64,11.26-17.26a49.13,49.13,0,0,1,4.25-3.24l4.15-2.83L428,215.62c-15.11,3.67-29.21,10.51-42.13,19.1l-.06,0-.05.05a37,37,0,0,0-4,4.35l-1.35,1.73,2.18-.26c9.9-1.14,19.85-1.91,29.81-2.17Z" transform="translate(-51.38 -19.02)"/><path class="cls-10" d="M421.18,223.63a40.77,40.77,0,0,1,3.3-3.13,49.13,49.13,0,0,1,4.25-3.24l4.15-2.83L428,215.62c-15.11,3.67-29.21,10.51-42.13,19.1l-.06,0-.05.05a37,37,0,0,0-4,4.35l-1.35,1.73,2.18-.26q3.93-.45,7.86-.82A115.41,115.41,0,0,1,421.18,223.63Z" transform="translate(-51.38 -19.02)"/><path class="cls-12" d="M458,241.68l.61.12.34-.52a52.08,52.08,0,0,1,13.67-14.17A74.19,74.19,0,0,1,486,219.62l2.22-1-2.31-.74a109.18,109.18,0,0,0-32.07-5.29h-.14l-.14,0c-8.64,2.72-18.05,6.63-25,12.56a28.47,28.47,0,0,0-8.62,11.91l-.43,1.22h1.29a207.57,207.57,0,0,1,34.58,2.84C456.23,241.35,457.12,241.51,458,241.68Z" transform="translate(-51.38 -19.02)"/><path class="cls-10" d="M462.32,213.06q-4.23-.39-8.5-.44h-.14l-.14,0c-8.64,2.72-18.05,6.63-25,12.56a28.47,28.47,0,0,0-8.62,11.91l-.43,1.22h1.29c2.34,0,4.67,0,7,.12Q441.1,218.88,462.32,213.06Z" transform="translate(-51.38 -19.02)"/><path class="cls-9" d="M498.41,222.63l-1.32-.56-.33.1a75.93,75.93,0,0,0-20.5,10A47.06,47.06,0,0,0,466,242.1l-.83,1.1,1.34.34c15.45,3.88,30.15,10.31,42.52,20.49l4.65,3.82-3.3-5c-6.18-9.42-11.5-21.7-12.18-33a35.3,35.3,0,0,1,.18-6.5Z" transform="translate(-51.38 -19.02)"/><path class="cls-12" d="M516.31,603.37a293.89,293.89,0,0,0,36.51-49.12l1.28-2.19-2.38.86c-9.15,3.29-19.5,2.85-28.92,1.13l-.72-.13-.29.67c-4.29,9.9-8.54,21.58-9.46,32.4-.46,5.4-.12,11.33,2.49,16.2l.61,1.13Z" transform="translate(-51.38 -19.02)"/><path class="cls-12" d="M515.47,553.52l.42-1-1-.26c-1.79-.47-3.58-1-5.35-1.53l-.81-.24-.31.78c-6.51,16.39-14.24,33.08-24,47.81l-.49.73.71.52a62.74,62.74,0,0,0,11.65,6.77,46.12,46.12,0,0,0,12.59,3.58l.46,0,1.77-1.82-.43-.62c-4.36-6.36-5.17-14.33-4.54-21.83C507.06,575.42,511.16,563.68,515.47,553.52Z" transform="translate(-51.38 -19.02)"/><path class="cls-12" d="M559.92,414.21l1.66,3.13.06-3.54c.11-6.3,1.17-13,3.92-18.75a24.54,24.54,0,0,1,5.46-7.58,17.58,17.58,0,0,1,5.19-3.31l1.78-.71-1.68-.93a104.59,104.59,0,0,0-24.15-9.15l-1-.27-.12,1a24.7,24.7,0,0,1-1.1,4.87,21.75,21.75,0,0,1-1.28,3.08l-.46.92-.9.46q-4.68,2.38-9.48,4.51l-1.63.72,1.53.91C547.5,395.38,554.64,404.27,559.92,414.21Z" transform="translate(-51.38 -19.02)"/><path class="cls-10" d="M576.21,384.16l1.78-.71-1.68-.93a104.59,104.59,0,0,0-24.15-9.15l-1-.27-.12,1a24.7,24.7,0,0,1-1.1,4.87v0q9.39.91,20,9.55c.37-.39.75-.76,1.14-1.12A17.58,17.58,0,0,1,576.21,384.16Z" transform="translate(-51.38 -19.02)"/><path class="cls-12" d="M577.47,501l1.56-4.73a331.74,331.74,0,0,0,11-42.92l.32-1.71-1.59.71a13.84,13.84,0,0,1-8.13,1,16,16,0,0,1-7-3.19l-1.93-1.5.47,2.4a298,298,0,0,1,5.06,45Z" transform="translate(-51.38 -19.02)"/><path class="cls-12" d="M581.71,447.24a7.89,7.89,0,0,0,5.27-1,13.88,13.88,0,0,0,5.09-5.52l.08-.14,0-.17q2.57-17.13,3.57-34.45v-.11l0-.12a29.12,29.12,0,0,0-8.46-15.27l-.13-.12-.16-.07a11.36,11.36,0,0,0-7-.83,10.69,10.69,0,0,0-4.76,2.59,18.38,18.38,0,0,0-4.06,5.66c-4.72,9.84-3.7,23.21-1.33,33.52,1,4.56,3,9.53,6.38,12.89A10.66,10.66,0,0,0,581.71,447.24Z" transform="translate(-51.38 -19.02)"/><path class="cls-10" d="M590.92,394.74a35.34,35.34,0,0,0-3.64-4.24l-.13-.12-.16-.07a11.36,11.36,0,0,0-7-.83,10.69,10.69,0,0,0-4.76,2.59,18.38,18.38,0,0,0-4.06,5.66c-4.72,9.84-3.7,23.21-1.33,33.52,1,4.56,3,9.53,6.38,12.89a12.46,12.46,0,0,0,3.29,2.38q-8.88-25.74-1.52-45.62Q582.29,393,590.92,394.74Z" transform="translate(-51.38 -19.02)"/><path class="cls-8" d="M309.06,404.85c-2.55-7-6-15.25-10.62-21.16-2.18-2.78-5.34-5.94-9.1-6.16h-.11l-.11,0a21.94,21.94,0,0,0-18.31,17l-.54,2.6c-1.08,5.26-5,11.89,4.84,9.83,4.84-1,11.07-6.32,13.79-11.11a10.19,10.19,0,0,1-.42,5.31,19.87,19.87,0,0,1-5.57,8.46,15.82,15.82,0,0,1-3.68,2.47,13,13,0,0,1-2.85,1l-1.24.24,0,.73c-.1,3,.4,6.79,3.36,8.4,4.52,2.47,13.19,1,18.44-.48-.5,4.35-3.25,6.69-7.93,7.38l-1.94.29,2.52,2.24c6.24,5.53,12.28,11.31,18.24,17.15L309,450.2l.3-1.71a142.14,142.14,0,0,1,8.54-29.5l.23-.55-.41-.44a49.74,49.74,0,0,1-4.54-5.49,33.93,33.93,0,0,1-4-7.5h0Z" transform="translate(-51.38 -19.02)"/><path class="cls-9" d="M309.06,404.85c-2.55-7-6-15.25-10.62-21.16-2.18-2.78-5.34-5.94-9.1-6.16h-.11l-.11,0a21.94,21.94,0,0,0-18.31,17l-.54,2.6c-.48,2.37-1.55,5-1.66,7q8,.39,17.54-9.39,3.84-3,2.83,1.43a10.58,10.58,0,0,1-.5,5c-.09.26-.18.52-.28.78q.76,11.55,8.7,17.2a25.35,25.35,0,0,0,8.33.76q4.31,0-1.06,7.72,1.45,12.45,5.31,20.13a142.22,142.22,0,0,1,8.4-28.74l.23-.55-.41-.44a49.74,49.74,0,0,1-4.54-5.49,33.93,33.93,0,0,1-4-7.5h0Z" transform="translate(-51.38 -19.02)"/><path class="cls-10" d="M309.06,404.85c-2.55-7-6-15.25-10.62-21.16-2.18-2.78-5.34-5.94-9.1-6.16h-.11l-.11,0A21.86,21.86,0,0,0,271,393.79q2.28,2.2,9.5-5.25,4-4.46,10.83.08a136.42,136.42,0,0,1,8,17.41q8.43,11.25,17.71,15l.81-2,.23-.55-.41-.44a49.74,49.74,0,0,1-4.54-5.49,33.93,33.93,0,0,1-4-7.5h0Z" transform="translate(-51.38 -19.02)"/><path class="cls-8" d="M261.88,405.33l.06-.21c.43-1.42.83-2.85,1.18-4.3l.09-.39-.22-.34c-2.77-4.1-7.4-5.74-12.14-6.23-8.58-.88-18.85,1.58-27,4.06l-.31.1-.18.26a14.8,14.8,0,0,0-2.16,6.89,41.29,41.29,0,0,0,.35,9.62l.15,1.07,1-.32c13.22-4.09,27.22-3.27,40.54-.1l1.16.27,0-1.45c0-.92-.08-1.82-.15-2.74l0-.37-.28-.24a5.71,5.71,0,0,1-2.08-5.34Z" transform="translate(-51.38 -19.02)"/><path class="cls-9" d="M222.72,415.54a68.2,68.2,0,0,1,26.13-2.47,30.38,30.38,0,0,0,8.6-17.54,21.58,21.58,0,0,0-6.6-1.67c-8.58-.88-18.85,1.58-27,4.06l-.31.1-.18.26a14.8,14.8,0,0,0-2.16,6.89,41.29,41.29,0,0,0,.35,9.62l.15,1.07Z" transform="translate(-51.38 -19.02)"/><path class="cls-11" d="M363.82,446.39c11.54,3,21.82,9.64,30.42,17.73A112.86,112.86,0,0,1,408.09,480l.81,1.11.72-1.18c8-13.17,20.27-35.46,18.95-51.44l0-.18-.08-.16c-3.93-7.75-13-13.22-20.53-16.83-13.92-6.62-30.49-10.7-45.57-13.69l-.17,0-.17,0c-9.44,1.77-17.23,10.79-22.44,18.25-7.71,11-13.74,24.28-18.72,36.77l-1.07,2.67,2.42-1.57a60.4,60.4,0,0,1,8.93-4.8A49.82,49.82,0,0,1,363.82,446.39Z" transform="translate(-51.38 -19.02)"/><path class="cls-9" d="M399.25,461.51c4.36-8.2.48-8.71,10.36-11.41,1.59-.44,8.26-17.41,8.1-17.69-1.22-2.18-3.82,5-4,5.34-3.89,6.17-3.58,7.54-10.61,10.14-5.16,1.91-7.55,9.61-9.76,15.35.32.29.64.58.95.88,1,.9,1.89,1.81,2.81,2.74C398,464.49,399.2,461.6,399.25,461.51Z" transform="translate(-51.38 -19.02)"/><path class="cls-12" d="M533.49,463.65l.25.8.82-.18a75.75,75.75,0,0,1,15.74-1.74,62.08,62.08,0,0,1,12.54,1.16l1.12.23,0-1.15a55.8,55.8,0,0,0-1.66-12.13A57.27,57.27,0,0,0,558,439.15l-.18-.36-.4-.11c-9.17-2.59-19.09-3.09-27.33,2.42l-.46.31.05.55c.5,4.84,1.12,9.72,2,14.5A63.82,63.82,0,0,0,533.49,463.65Z" transform="translate(-51.38 -19.02)"/><path class="cls-10" d="M559.88,443.32c-.57-1.41-1.2-2.8-1.87-4.17l-.18-.36-.4-.11c-9.17-2.59-19.09-3.09-27.33,2.42l-.46.31.05.55c.5,4.84,1.12,9.72,2,14.5a63.82,63.82,0,0,0,1.75,7.19l.25.8.82-.18c1.58-.34,3.18-.64,4.79-.88q-2.45-13.62-2.24-19.49A62.34,62.34,0,0,1,559.88,443.32Z" transform="translate(-51.38 -19.02)"/><path class="cls-8" d="M140.12,484.16l-.57.58c-2.81,2.79-6.08,7.35-6.83,11.29l-.07.36.19.3c7.54,11.87,18,22.76,28.32,32.25,15.41,14.19,32.5,27,49.69,39l.06,0,.06,0a9.25,9.25,0,0,0,10-.81l.72-.52-.5-.74a143.36,143.36,0,0,0-15.41-18.16c-4.33-4.46-8.38-9.29-12.53-13.94-4.49-5-9.1-10-14-14.63,10.51,5.5,24.33,17.32,31,24.23a159.92,159.92,0,0,1,14.84,17.23l.81,1.11.71-1.16c3.64-5.91,6.2-13.27,8.17-19.89l.18-.62.42-.49A123.71,123.71,0,0,0,245.32,526l1.8-3a101.89,101.89,0,0,0,9-20.18c4-12.52,7.53-28.17,6.78-41.65,7.5,10.24,2.37,33.43-.86,43.53-.89,2.78-1.9,5.53-3,8.23l-1.54,3.7,3-2.66a57.46,57.46,0,0,0,6.59-6.92c4.66-5.8,9.82-13.56,12.57-20.93.25,4.36-1.35,10.77-2.27,13.67a36.43,36.43,0,0,1-5.45,11.16,66.52,66.52,0,0,1-17.53,15.22l-.83.5.55.8a45.22,45.22,0,0,0,10.55,10.7A61.2,61.2,0,0,0,283.23,547l.19.06.21,0a75.12,75.12,0,0,1,15.36-.49l1,.07,0-1c-.36-16.67-.55-33.89.77-50.52.63-7.91,2-21.24,6.37-28.07l.13-.2,0-.24q.22-4.14.68-8.25l.05-.44-.31-.31c-7.25-7.19-14.63-14.31-22.25-21.1-3.45-3.06-7-6.08-10.58-8.93L273,426.11l.38,2.32a19.25,19.25,0,0,1-.69,9.93,14.85,14.85,0,0,1-8.56,8.45A23.73,23.73,0,0,1,260.7,448l-.25.06c-11.68,2.19-38.82,6.82-43.14-9.12,5.74,4.73,15.34,6.28,22.17,6.5,7.2.24,24.28-1.09,27.37-9.24,1.1-2.88.59-6.4-.17-9.3a39.93,39.93,0,0,0-1.35-4.09l-.17-.44-.45-.11c-17.38-4.61-35.8-5.18-51.66,4.45l-.13.08-.1.12c-13.42,16.26-21.36,35.7-25.62,56.21l-.13.62.53.34c7.84,5,19.24,13.07,20.41,23.33-6.81-7.91-17-14.08-25.71-19.29l-.07,0-.07,0c-10.21-3.82-25.34-8.56-36.33-6.2l-1.83.4,1.44,1.2c5,4.19,7.07,7.08,8.54,12.94-3.41-2.66-11-10-13.22-11.69Z" transform="translate(-51.38 -19.02)"/><path class="cls-9" d="M140.12,484.16l-.57.58c-2.81,2.79-6.08,7.35-6.83,11.29l-.07.36.19.3c7.54,11.87,18,22.76,28.32,32.25q4.74,4.37,9.67,8.55a68.41,68.41,0,0,0,10.71-16.13c-.76-.74-1.52-1.46-2.3-2.19,6.21,3.25,13.56,8.7,19.94,14q-6.7-16.5-10-23.32,17.28,18.63,22.25,22,7.14,4.13,19.68-12.57,21.68-38.34,21.35-54.95-2.5-22.23,16.35,3,4.83,11.54,5.76,17,5.16-3.82,6.51.15,2.7,7.94.45,27.25,7.39,17.82,18.35,29.26c-.29-15.2-.34-30.78.86-45.86.63-7.91,2-21.24,6.37-28.07l.13-.2,0-.24q.22-4.14.68-8.25l.05-.44-.31-.31c-7.25-7.19-14.63-14.31-22.25-21.1-3.45-3.06-7-6.08-10.58-8.93L273,426.11l.38,2.32a19.25,19.25,0,0,1-.69,9.93,14.85,14.85,0,0,1-8.56,8.45A23.73,23.73,0,0,1,260.7,448l-.25.06c-11.68,2.19-38.82,6.82-43.14-9.12l.05,0a2.78,2.78,0,0,1,.27-3.1q43.92,10.66,45.66-14c-17-4.27-34.82-4.55-50.24,4.82l-.13.08-.1.12c-13.42,16.26-21.36,35.7-25.62,56.21l-.13.62.53.34c7.84,5,19.24,13.07,20.41,23.33-6.81-7.91-17-14.08-25.71-19.29l-.07,0-.07,0c-10.21-3.82-25.34-8.56-36.33-6.2l-1.83.4,1.44,1.2c5,4.19,7.07,7.08,8.54,12.94-3.41-2.66-11-10-13.22-11.69Z" transform="translate(-51.38 -19.02)"/><path class="cls-9" d="M190.26,530.43q-4.5,3.06-12.44,12.87,6,4.86,12.15,9.51,7.28-5.77,10.21-11.18c-2.31-2.6-4.58-5.25-6.89-7.83Q191.79,532.11,190.26,530.43Z" transform="translate(-51.38 -19.02)"/><path class="cls-10" d="M182.23,488.05l-.07,0c-10.21-3.82-25.34-8.56-36.33-6.2l-1.83.4,1.44,1.2a30.06,30.06,0,0,1,5.26,5.34q29.31.93,50.1,11.7a153.27,153.27,0,0,0-18.5-12.37Z" transform="translate(-51.38 -19.02)"/><path class="cls-10" d="M140.12,484.16l-.57.58c-2.81,2.79-6.08,7.35-6.83,11.29l-.07.36.19.3c1.38,2.18,2.86,4.31,4.42,6.42q4.81-9.12,9.1-13.44c-2.4-2.19-4.59-4.2-5.6-5Z" transform="translate(-51.38 -19.02)"/><path class="cls-10" d="M214.31,435.85a6.89,6.89,0,0,0,2.71,1.56,2.53,2.53,0,0,1,.61-1.56c.81.2,1.61.38,2.4.56q3.71-6.66,28.49-8.73,12.81-.87,11.26-6.64c-15.89-3.44-32.37-3.08-46.73,5.64l-.13.08-.1.12c-13.42,16.26-21.36,35.7-25.62,56.21l-.13.62.53.34c1.66,1.06,3.47,2.25,5.31,3.57Q204.77,447.69,214.31,435.85Z" transform="translate(-51.38 -19.02)"/><path class="cls-8" d="M222.6,390.69l.15,1.05,1-.3c8.53-2.48,18.78-4.69,27.71-3.77A24.78,24.78,0,0,1,263.79,392l1,.77.38-1.23a29.39,29.39,0,0,1,8.05-13.05,26.1,26.1,0,0,1,3.6-2.77l.46-.29-1.56-23.82-.81,0a165.73,165.73,0,0,0-26.73.86,210.12,210.12,0,0,0-28.91,5.35l-.77.2.09.79q.88,8.39,1.94,16.76Q221.52,383.12,222.6,390.69Z" transform="translate(-51.38 -19.02)"/><path class="cls-9" d="M267.12,362.73q2.1,13.42,2.85,19.37a26.58,26.58,0,0,1,6.88-6.38l.46-.29-1.56-23.82-.81,0a165.73,165.73,0,0,0-26.73.86,210.12,210.12,0,0,0-28.91,5.35l-.77.2.09.79q.88,8.39,1.94,16.76,1,7.59,2,15.16l.15,1.05,1-.3c2.17-.63,4.45-1.24,6.8-1.79q-5.08-26.2,1.12-26.31,5.46-2,8.71,2,2.57,16.23,3.66,22.25a45.73,45.73,0,0,1,7.42.12,29.55,29.55,0,0,1,7.1,1.57q-3.3-23.44-2.66-25.75Q260.95,358.39,267.12,362.73Z" transform="translate(-51.38 -19.02)"/><path class="cls-10" d="M274.59,377.34a25.8,25.8,0,0,1,2.26-1.62l.46-.29-1.56-23.82-.81,0a165.73,165.73,0,0,0-26.73.86,210.12,210.12,0,0,0-28.91,5.35l-.77.2.09.79q.88,8.39,1.94,16.76,1,7.59,2,15.16l.15,1.05,1-.3,1.23-.35q-3.62-24.49-3.6-28.58,11.11-6,49.73-7.2Q273.68,356,274.59,377.34Z" transform="translate(-51.38 -19.02)"/><path class="cls-5" d="M229,352.46l.65-.13.08-.67c.07-.7.11-1.37.14-2.06v-.05a26.73,26.73,0,0,0-26-27.39h-.06a26.76,26.76,0,0,0-27.39,26v.06a26.74,26.74,0,0,0,26,27.39h0A26.72,26.72,0,0,0,216.55,372l.52-.3-.07-.6q-.85-7-1.58-14.06l-.14-1.28,1.25-.33Q222.7,353.77,229,352.46Z" transform="translate(-51.38 -19.02)"/><path class="cls-10" d="M197.66,353.2a3.1,3.1,0,0,0-1.08.05,12.3,12.3,0,0,0-5.27,3.29h0a14.33,14.33,0,0,0-3.08,4.3c-.6,1.39-.63,2.49-.11,3.09h0c.52.6,1.59.62,2.94.08a14.08,14.08,0,0,0,4.25-3h0a14.51,14.51,0,0,0,3.08-4.3c.6-1.39.63-2.48.11-3.09h0A1.4,1.4,0,0,0,197.66,353.2Z" transform="translate(-51.38 -19.02)"/><path class="cls-10" d="M203.18,327.63h0c-.79-.06-1.57.68-2.14,2a13.85,13.85,0,0,0-.94,5.1v0a14.48,14.48,0,0,0,.83,5.22c.55,1.41,1.3,2.21,2.09,2.27h0a1.34,1.34,0,0,0,.91-.28,3,3,0,0,0,.73-.79,12.14,12.14,0,0,0,1.44-6v0a14.44,14.44,0,0,0-.83-5.22C204.72,328.5,204,327.69,203.18,327.63Z" transform="translate(-51.38 -19.02)"/><path class="cls-10" d="M181.85,348.89h0c0,.8.68,1.57,2,2.14a13.88,13.88,0,0,0,5.1.91h0a14.42,14.42,0,0,0,5.22-.85c1.4-.55,2.2-1.31,2.26-2.1h0a1.38,1.38,0,0,0-.29-.9,3.15,3.15,0,0,0-.79-.74,12.3,12.3,0,0,0-6.05-1.4h0a14.47,14.47,0,0,0-5.23.86C182.71,347.34,181.91,348.09,181.85,348.89Z" transform="translate(-51.38 -19.02)"/><path class="cls-10" d="M195.48,337.06h0a14.41,14.41,0,0,0-4.28-3.1c-1.39-.6-2.49-.64-3.09-.12h0c-.61.53-.63,1.59-.09,2.95a13.84,13.84,0,0,0,3,4.26h0a14.31,14.31,0,0,0,4.29,3.1c1.38.6,2.48.64,3.08.12h0a1.42,1.42,0,0,0,.44-.84,3.11,3.11,0,0,0-.05-1.08A12.22,12.22,0,0,0,195.48,337.06Z" transform="translate(-51.38 -19.02)"/><path class="cls-10" d="M215.29,356.62h0a14.44,14.44,0,0,0-4.31-3.07c-1.39-.59-2.49-.62-3.09-.09h0a1.47,1.47,0,0,0-.43.85,3.37,3.37,0,0,0,.05,1.08,12.28,12.28,0,0,0,3.32,5.25h0a14.27,14.27,0,0,0,4.31,3.06,6.55,6.55,0,0,0,1.05.36q-.41-3.53-.76-7.05l0-.3Z" transform="translate(-51.38 -19.02)"/><path class="cls-10" d="M203.23,355.49h0a1.39,1.39,0,0,0-.91.29,3.18,3.18,0,0,0-.73.8,12.22,12.22,0,0,0-1.38,6.05v0a14.41,14.41,0,0,0,.87,5.22c.56,1.4,1.32,2.2,2.11,2.25h0c.8.05,1.57-.69,2.13-2a14,14,0,0,0,.89-5.11v0a14.44,14.44,0,0,0-.87-5.22C204.79,356.35,204,355.55,203.23,355.49Z" transform="translate(-51.38 -19.02)"/><path class="cls-10" d="M218,333.69c-.53-.6-1.6-.61-2.94-.05a13.91,13.91,0,0,0-4.23,3h0a14.65,14.65,0,0,0-3.05,4.33c-.58,1.39-.6,2.49-.07,3.08h0a1.39,1.39,0,0,0,.85.43,3.13,3.13,0,0,0,1.08-.06,12.16,12.16,0,0,0,5.23-3.33h0a14.42,14.42,0,0,0,3.05-4.33c.59-1.39.61-2.49.08-3.09Z" transform="translate(-51.38 -19.02)"/><path class="cls-10" d="M216.88,351.7a14.09,14.09,0,0,0,5.21-.89c1.41-.56,2.2-1.32,2.25-2.12h0c0-.8-.7-1.57-2-2.13a14.07,14.07,0,0,0-5.11-.86h0a14.39,14.39,0,0,0-5.22.89c-1.39.57-2.19,1.33-2.24,2.12h0a1.36,1.36,0,0,0,.29.9,3.37,3.37,0,0,0,.8.73,12.4,12.4,0,0,0,6.06,1.36Z" transform="translate(-51.38 -19.02)"/><path class="cls-12" d="M534.69,278.2l.66.31a22.68,22.68,0,0,0,3.9,1.4c.52.13,1,.24,1.57.32l.83.13.2-.82c3.55-14.37,5-30.12,2.67-44.8-1.79-11.07-6-22.77-14.56-30.46l-.31-.28-.41.05a25,25,0,0,0-11.17,4.58C513,212.15,508.63,217.06,505,222l-.12.16,0,.2a26.47,26.47,0,0,0-.43,7.11,42.71,42.71,0,0,0,1.22,7.78l.6,2.46,1.11-2.28c2.06-4.22,9-18.27,14.17-19.67,6.87.93,11.32,13,12.84,18.53,3.57,13.08,3.38,28,.53,41.21Z" transform="translate(-51.38 -19.02)"/><path class="cls-10" d="M506.19,239.69l1.11-2.28c.68-1.39,1.89-3.84,3.39-6.56q5.76-15.75,14.29-19a29.48,29.48,0,0,1,5.21-7.3l-.23-.22-.31-.28-.41.05a25,25,0,0,0-11.17,4.58C513,212.15,508.63,217.06,505,222l-.12.16,0,.2a26.47,26.47,0,0,0-.43,7.11,42.71,42.71,0,0,0,1.22,7.78Z" transform="translate(-51.38 -19.02)"/><path class="cls-8" d="M268.34,570.44c-7.54,2.59-12.13,7.94-14,15.65l0,.09v.09c-.42,10.18,4.94,19.54,11.26,27.11,12.19,14.61,31.13,27,47.49,36.39l.21.12h0c14,8.12,34.54,18.1,51.18,15.51,9.76-1.52,16.66-7.33,21.38-15.86l.08-.14,0-.17c2.28-14.72-2.43-27.63-12.13-38.79a146.69,146.69,0,0,0-44.24-34.52c19.28,5.39,35.1,14.53,48.94,30.43A57.55,57.55,0,0,1,391.09,629l1,3.81.76-3.87a88.61,88.61,0,0,0,1.58-14.45,113.52,113.52,0,0,0-2.71-27.12l-.18-.84.28-.81c4.9-14.23,8.38-29.26,8.87-44.34.39-12.14-2.22-27.39-6.37-39.28,7.8,6.35,10.9,13.45,12,24v.12l0,.11a1.46,1.46,0,0,0,1.12,1c2.53.34,4.05-8.54,4.33-10.16.12-.72.24-1.47.33-2.22a30.51,30.51,0,0,1,1.14,6.61c.39,5.72-1,17.08-6.09,20.68l-.37.26,0,.45c-.65,14.87-4,29.61-8.76,43.67L398,587l.05.25a118.61,118.61,0,0,1,2.59,27.48c0,.72,0,1.44-.08,2.15l0,.5.42.3c18,12.53,37.08,16.16,55.66,2.89,21-15,36.05-46.78,45.4-70.06l1.07-2.66-2.42,1.54a37.23,37.23,0,0,1-13.2,5.15,50.19,50.19,0,0,1-24.94-1.88,45.38,45.38,0,0,1-20.86-13.91,34.53,34.53,0,0,1-7.07-14.46l0-.2-.13-.16c-9.27-12.1-4.78-23.95,4.65-34.44l.16-.17.12-.11c13-11.26,28.5-16,45.6-15.3,2.33.1,4.65.3,7,.58l1.44.18-.46-1.38c-7.34-22-5.69-42.72,10.46-59.27a80,80,0,0,0-6.21,22.72l-.26,2.54,1.81-1.8c2.58-2.56,8-7.18,11.89-7.81-1.44,2.64-7.43,10.37-8.44,11.73a75.58,75.58,0,0,0-6.77,10.21l-.1.21V452a69.36,69.36,0,0,0,5,23.42l.18.46.48.11c18.25,3.94,30.45,8.81,42.06,22.54-17-8.76-40.13-17.7-58.31-18.45-15.41-.65-29.37,3.57-41.12,13.63l-.05,0-.05.05c-3.49,3.95-6.8,8.87-7.54,14.21l-.87,6.34,2.62-5.84c2.77-6.21,11.12-12.77,17.67-16.18l-1.1,1.24a79.19,79.19,0,0,0-5.22,6.6,45.07,45.07,0,0,0-8.46,22.2v.14l0,.13a28.52,28.52,0,0,0,5.87,12.14,39.09,39.09,0,0,0,18,11.93,43.77,43.77,0,0,0,21.83,1.66,30,30,0,0,0,13.19-5.82l.05,0,.05,0a49,49,0,0,0,11.86-21.86,24.91,24.91,0,0,1-.09,13.51l-.73,2.92,2.23-2a33.63,33.63,0,0,0,4.76-6.47c-.8,5.16-4.66,11.88-7.69,14.35L508.63,544l1.62.51c13.3,4.22,31.51,7.94,44.29.26a26.38,26.38,0,0,0,6.56-5.58l.07-.08.05-.1q4.11-8,7.73-16.3l0-.07,0-.07a90.72,90.72,0,0,0,2.23-21.22c-.32-9.63-.93-19.22-2-28.75l-.07-.59L566,471a50.32,50.32,0,0,0-15.66-2.21,70.06,70.06,0,0,0-17.7,2.41l-2.57.69L529,469.39a55.84,55.84,0,0,1-3.36-11.76c-1.1-5.72-1.79-11.58-2.33-17.38l-.16-1.66,1.3-1c10.27-8.24,22.86-8.29,35.08-4.76l1.69.49-.58-1.67c-.71-2.06-1.47-4.11-2.3-6.13-5.83-14.22-14.94-27.62-29.76-33.43l-.33-.13-.33.12a182.2,182.2,0,0,1-85.67,10.76,170.12,170.12,0,0,1-78.31-30l-.5-.35-.52.32c-14.54,9.14-25.9,22.36-34,37.42a128.53,128.53,0,0,0-11.31,29.4l-.2.81L319,441l.34-.77a167.22,167.22,0,0,1,15.17-27.93c6.4-9.17,15.64-19.24,27.31-21l.52-.08.52.1c15.83,3.09,33.16,7.36,47.77,14.32,9.17,4.37,19.35,10.9,23.8,20.43l.21.44.06.55c2,18.5-12.28,44.07-21.66,59.16l-.31.49.31.49c6.37,10,8.83,14.85,9.8,25-7.75-15.77-20.52-31.93-32.85-43.53-.84-.79-1.7-1.57-2.58-2.33l-1.64-1.42.13,2.17a17.9,17.9,0,0,1-6,15.08c-3.61,3.27-8.5,5.23-13.18,6.33a50.8,50.8,0,0,1-14.85,1.23,32.7,32.7,0,0,1-6.17-1c9.83-1.32,23.18-5,30-11.19,5.31-4.82,4.36-12,2.1-18.1l-.11-.3-.27-.17a55.88,55.88,0,0,0-15.15-6.56,43.74,43.74,0,0,0-28.68,2.24c-8,3.44-15,8.94-20.92,15.23l0,0,0,.05c-4.82,6.55-1.59,12.54,4.62,16.38a26.53,26.53,0,0,0,6.64,2.89c-2.45.2-5.16.26-6.16.23-2.53-.07-6.49-.42-8.63-1.87l-1.25-.84-.18,1.49c-.29,2.44-.52,4.88-.71,7.33-1.33,16.75-1.13,34.1-.75,50.9l0,.78.77.1c3.15.43,6.28,1,9.4,1.63C323,550.36,334,555.06,341,559.28c-8.65-1.08-17.43-2.43-25.92-4.2-12.33-2.56-27.42-4.15-39.51.33a30.31,30.31,0,0,0-12.53,8.52l-2.61,3,3.66-1.54a33.69,33.69,0,0,1,9.21-2.38,55.16,55.16,0,0,1,20.21,1.66,60.7,60.7,0,0,1,7.4,2.45A76.33,76.33,0,0,0,268.34,570.44Zm74,30.77c10.55,7,23.65,16.95,30.56,27.79a27.27,27.27,0,0,1,4.54,12,16.72,16.72,0,0,1-2.82,11,24.53,24.53,0,0,1-7.29,6.84l-.23.15-.2.08c-9,3.92-19.53,2.29-28.59-.68-13.52-4.42-27.09-12.65-38.77-20.66l-.05,0h0c-10.71-7.45-23.87-17.71-30.9-28.87-5.18-8.25-7.13-17.14-1.53-25.67l.15-.23.24-.24c7.68-7.81,20-6.74,29.64-4.16C312.65,582.71,329.05,592.32,342.36,601.21Z" transform="translate(-51.38 -19.02)"/><path class="cls-9" d="M268.34,570.44c-7.54,2.59-12.13,7.94-14,15.65l0,.09v.09c0,.21,0,.43,0,.64a36.89,36.89,0,0,1,12.87-3.9l0,0,.24-.24c7.68-7.81,20-6.74,29.64-4.16a112.77,112.77,0,0,1,21.22,8.38q9.82,3.13,21.36,7.74,16.65,7.91,17.09-.9a143.35,143.35,0,0,0-27.17-17.86c19.28,5.39,35.1,14.53,48.94,30.43.55.62,1.08,1.26,1.6,1.9l.11.06q12.88-21.39-9.69-40A49.49,49.49,0,0,0,382,545.93q1.92-28.29-7.11-45.12-2.52.48-5.76,19.23-1-13.36-3.05-31.41a51.28,51.28,0,0,1-14.24,1.08,35,35,0,0,1-5.6-.83q-12.52.06-18.74-3.66,47.65-2.5,44.91-29a51.81,51.81,0,0,0-10.16-3.81,43.74,43.74,0,0,0-28.68,2.24c-8,3.44-15,8.94-20.92,15.23l0,0,0,.05c-4.82,6.55-1.59,12.54,4.62,16.38a26.53,26.53,0,0,0,6.64,2.89c-2.45.2-5.16.26-6.16.23-2.53-.07-6.49-.42-8.63-1.87l-1.25-.84-.18,1.49c-.29,2.44-.52,4.88-.71,7.33-1.33,16.75-1.13,34.1-.75,50.9l0,.78.77.1c3.15.43,6.28,1,9.4,1.63C323,550.36,334,555.06,341,559.28c-8.65-1.08-17.43-2.43-25.92-4.2-12.33-2.56-27.42-4.15-39.51.33a30.31,30.31,0,0,0-12.53,8.52l-2.61,3,3.66-1.54a33.69,33.69,0,0,1,9.21-2.38,55.16,55.16,0,0,1,20.21,1.66,60.7,60.7,0,0,1,7.4,2.45A76.33,76.33,0,0,0,268.34,570.44Z" transform="translate(-51.38 -19.02)"/><path class="cls-9" d="M549,430.75q-4.31-20.64-22.54-38.18a182.13,182.13,0,0,1-84.25,10.23,170.12,170.12,0,0,1-78.31-30l-.5-.35-.52.32c-14.54,9.14-25.9,22.36-34,37.42a128.53,128.53,0,0,0-11.31,29.4l-.2.81L319,441l.34-.77a167.22,167.22,0,0,1,15.17-27.93c6.4-9.17,15.64-19.24,27.31-21l.52-.08.52.1c15.83,3.09,33.16,7.36,47.77,14.32,9.17,4.37,19.35,10.9,23.8,20.43l.21.44.06.55c2,18.5-12.28,44.07-21.66,59.16l-.31.49.31.49c6.37,10,8.83,14.85,9.8,25-7.75-15.77-20.52-31.93-32.85-43.53-.84-.79-1.7-1.57-2.58-2.33l-1.64-1.42.13,2.17a19.47,19.47,0,0,1-1.13,8.11,99.58,99.58,0,0,1,15,32.38c3.94,5.06,5.8,10.91,6.63,18.61v.12l0,.11a1.46,1.46,0,0,0,1.12,1c2.53.34,4.05-8.54,4.33-10.16.12-.72.24-1.47.33-2.22a30.51,30.51,0,0,1,1.14,6.61c.39,5.72-1,17.08-6.09,20.68l-.37.26,0,.45a148.24,148.24,0,0,1-5.5,33.09A26.86,26.86,0,0,0,417.78,582a14.29,14.29,0,0,1-4.62-5.9q8.91,4.4,28.69,2.65a25,25,0,0,1-12.64,3.86c6.16,4.55,24.58-5,30.06-8.56a25.8,25.8,0,0,1-6.36,9.39q22-6.19,23.79-28.24a52.05,52.05,0,0,1-14.16-2.63,45.38,45.38,0,0,1-20.86-13.91,34.53,34.53,0,0,1-7.07-14.46l0-.2-.13-.16c-9.27-12.1-4.78-23.95,4.65-34.44l.16-.17.12-.11c13-11.26,28.5-16,45.6-15.3,2.33.1,4.65.3,7,.58l1.44.18-.46-1.38c-7.34-22-5.69-42.72,10.46-59.27a80,80,0,0,0-6.21,22.72l-.26,2.54,1.81-1.8c2.58-2.56,8-7.18,11.89-7.81-1.44,2.64-7.43,10.37-8.44,11.73a75.58,75.58,0,0,0-6.77,10.21l-.1.21V452a69.36,69.36,0,0,0,5,23.42l.18.46.48.11c18.25,3.94,30.45,8.81,42.06,22.54-17-8.76-40.13-17.7-58.31-18.45-15.41-.65-29.37,3.57-41.12,13.63l-.05,0-.05.05c-3.49,3.95-6.8,8.87-7.54,14.21l-.87,6.34,2.62-5.84c2.77-6.21,11.12-12.77,17.67-16.18l-1.1,1.24a79.19,79.19,0,0,0-5.22,6.6,45.07,45.07,0,0,0-8.46,22.2v.14l0,.13a28.2,28.2,0,0,0,4,9.62Q466,547.32,502.55,539a49.41,49.41,0,0,0,8.91-18.43,24.91,24.91,0,0,1-.09,13.51l-.71,2.86.09,0,2.12-1.93a33.63,33.63,0,0,0,4.76-6.47,25.25,25.25,0,0,1-2.54,7.28q25.62,2.83,35-6.25,10.49-12.83,7.88-36,2.09,3,4.24,17.86,1.51-15.87-3.76-42.15a58.8,58.8,0,0,0-8.13-.52,70.06,70.06,0,0,0-17.7,2.41l-2.57.69L529,469.39a55.84,55.84,0,0,1-3.36-11.76c-1.1-5.72-1.79-11.58-2.33-17.38l-.16-1.66,1.3-1C531.77,431.66,540.3,430,549,430.75Z" transform="translate(-51.38 -19.02)"/><path class="cls-10" d="M495.29,451.77V452a69.36,69.36,0,0,0,5,23.42l.18.46.48.11a120.26,120.26,0,0,1,17.4,4.9q-11.72-13.36-12.56-32.68,4.38-12.3,11.8-20,5.7-7.23-7.11,1.54c-1.57,2.77-7.37,10.25-8.36,11.59a75.58,75.58,0,0,0-6.77,10.21Z" transform="translate(-51.38 -19.02)"/><path class="cls-10" d="M496.9,439.23l1.81-1.8a46.4,46.4,0,0,1,6.45-5.31q3.22-13.59,8.54-22.52c4.59-7.8-1.42-6.75-10.56,4.61l.23-.24a80,80,0,0,0-6.21,22.72Z" transform="translate(-51.38 -19.02)"/><path class="cls-10" d="M443.62,493.71l-.05,0-.05.05c-3.49,3.95-6.8,8.87-7.54,14.21l-.87,6.34,2.62-5.84c2.77-6.21,11.12-12.77,17.67-16.18l-1.1,1.24c-.59.67-1.17,1.35-1.74,2.05q27-18.9,85.56.46c-16.37-7.91-36.9-15.32-53.38-16C469.33,479.43,455.37,483.65,443.62,493.71Z" transform="translate(-51.38 -19.02)"/><path class="cls-10" d="M334.5,412.29a84.31,84.31,0,0,1,6.32-8q13.53-20.06,28.18-28c-1.71-1.12-3.41-2.27-5.08-3.45l-.5-.35-.52.32c-14.54,9.14-25.9,22.36-34,37.42a128.53,128.53,0,0,0-11.31,29.4l-.2.81L319,441l.34-.77A167.22,167.22,0,0,1,334.5,412.29Z" transform="translate(-51.38 -19.02)"/><path class="cls-10" d="M312.66,469.92l0,.05c-4.15,5.64-2.33,10.87,2.22,14.66q10.77-30.27,57.42-28.51a52.63,52.63,0,0,0-10-3.71,43.74,43.74,0,0,0-28.68,2.24c-8,3.44-15,8.94-20.92,15.23Z" transform="translate(-51.38 -19.02)"/><path class="cls-10" d="M307.84,486.76l-.18,1.49c-.29,2.44-.52,4.88-.71,7.33-1.33,16.75-1.13,34.1-.75,50.9l0,.78.77.1q4.67.64,9.29,1.61a294.93,294.93,0,0,1,2.51-59.5h-1.07c-2.53-.07-6.49-.42-8.63-1.87Z" transform="translate(-51.38 -19.02)"/><path class="cls-13" d="M275.61,555.41a30.31,30.31,0,0,0-12.53,8.52l-2.61,3,3.66-1.54a33.69,33.69,0,0,1,9.21-2.38c.77-.09,1.56-.17,2.34-.22q15.22-8.79,65,.64,11.13,2.85,4.54-1.81a28.36,28.36,0,0,0-4.53-2.38c-8.53-1.07-17.18-2.4-25.54-4.15C302.79,552.52,287.7,550.93,275.61,555.41Z" transform="translate(-51.38 -19.02)"/><path class="cls-8" d="M355.74,619.1l-.64-.57-28.57,28.23,1.16.57q3,1.47,6.08,2.77l.51.21,29.05-23.71-.64-.71A84,84,0,0,0,355.74,619.1Z" transform="translate(-51.38 -19.02)"/><path class="cls-8" d="M364.17,653.53l.08,0,.07,0a17.82,17.82,0,0,0,5.15-4.86,10.68,10.68,0,0,0,1.77-7,14.32,14.32,0,0,0-.6-3.05l-.44-1.46-18.36,18.07,2.14.06A24.27,24.27,0,0,0,364.17,653.53Z" transform="translate(-51.38 -19.02)"/><path class="cls-8" d="M303.55,587.21,303,587l-24.72,24.49.57.65c1.24,1.4,2.54,2.76,3.87,4.08l.62.6,28.86-25.91-1.26-.58C308.52,589.21,306.05,588.16,303.55,587.21Z" transform="translate(-51.38 -19.02)"/><path class="cls-8" d="M331,601.29l-.61-.38-30.17,29.71.89.64,2,1.39c.92.64,1.86,1.27,2.8,1.9l.58.39L339,606.45l-1-.66C335.69,604.25,333.36,602.75,331,601.29Z" transform="translate(-51.38 -19.02)"/><path class="cls-14" d="M203,351.88a2.81,2.81,0,0,0,.91-.12,2.86,2.86,0,0,0,.74-.32A3.07,3.07,0,0,0,206.1,349h0a3,3,0,0,0-2.92-3.07h0a2.94,2.94,0,0,0-2.14.82,3,3,0,0,0-.94,2.1h0a3,3,0,0,0,.83,2.15,3.06,3.06,0,0,0,2.09.93Z" transform="translate(-51.38 -19.02)"/><path class="cls-9" d="M334.14,435.29q5.39-7.76,10.29-13.61a8,8,0,0,1-1.66-2.63A101.73,101.73,0,0,0,334.14,435.29Z" transform="translate(-51.38 -19.02)"/><path class="cls-9" d="M378.81,408.19c-.19-2-1.81-3.39-4.85-4.09a59.33,59.33,0,0,0-12.87-2.88,46.24,46.24,0,0,0-9.55,7.17,7.9,7.9,0,0,1,4,2,38.7,38.7,0,0,1,6.29-4.29A67.25,67.25,0,0,1,378.81,408.19Z" transform="translate(-51.38 -19.02)"/><path class="cls-10" d="M355.19,416.22a5,5,0,1,0-5,5A5,5,0,0,0,355.19,416.22Z" transform="translate(-51.38 -19.02)"/><path class="cls-5" d="M381.65,418a9.34,9.34,0,0,0-3.66-2.25h-.32a10.49,10.49,0,0,0-9.44,15.06l.31.32c3.17,3.18,8.52,3.2,12.59,2-1.23,1.75-4.4,2.94-7.74,2.66a10.36,10.36,0,0,0,4.28.91,10.48,10.48,0,0,0,7.62-17.68,9.3,9.3,0,0,1-.6,9.76C386.22,425.32,384.36,420.73,381.65,418Z" transform="translate(-51.38 -19.02)"/><path class="cls-10" d="M381.12,433.16a10.52,10.52,0,0,0,3.61-4.44l0-.06h0c1.4-3.47-.45-8-3.11-10.63a9.45,9.45,0,0,0-3.67-2.26h-.31a10.49,10.49,0,0,0-9.44,15.06l.31.32C371.71,434.32,377.06,434.34,381.12,433.16Z" transform="translate(-51.38 -19.02)"/><path class="cls-10" d="M390,279.18c7.78-1.9,13-7.82,11.71-13.2s-8.7-8.22-16.48-6.31-13,7.81-11.71,13.2S382.26,281.08,390,279.18Z" transform="translate(-51.38 -19.02)"/><path class="cls-10" d="M373.61,304.9c1.88-3.08,1.66-6.64-.47-7.93s-5.39.15-7.26,3.24-1.66,6.64.47,7.93S371.74,308,373.61,304.9Z" transform="translate(-51.38 -19.02)"/><path class="cls-14" d="M242.5,390.27a11.88,11.88,0,0,0,2.72-1q-.19-5.71-3.77-24.06c-.28-2.49-3.17-2-7.06-1.48,2.81.8,3.69.91,4.53,3.09Q241.83,386.6,242.5,390.27Z" transform="translate(-51.38 -19.02)"/><path class="cls-14" d="M233.36,362.68q-5.78.36-6.89,4.46,1.75,18.6,3.18,24.15a11.7,11.7,0,0,0,2.88.15q-.39-3.72-3.18-23.47C229.55,365.64,230.88,363.88,233.36,362.68Z" transform="translate(-51.38 -19.02)"/><path class="cls-14" d="M269.72,388.32a12.05,12.05,0,0,0,2.72-1q-.19-5.73-3.77-24.06c-.28-2.49-3.17-2-7.06-1.49,2.81.8,3.69.92,4.53,3.1Q269,384.64,269.72,388.32Z" transform="translate(-51.38 -19.02)"/><path class="cls-14" d="M260.58,360.72q-5.77.38-6.89,4.47,1.74,18.6,3.18,24.15a11.7,11.7,0,0,0,2.88.15q-.39-3.72-3.18-23.47C256.77,363.69,258.1,361.92,260.58,360.72Z" transform="translate(-51.38 -19.02)"/><path class="cls-11" d="M266.79,582.08l-.3.3-.2.31q-7.77,11.88,1.52,26.66,8.35,13.27,31.2,29.17h0q22.36,15.35,39,20.79,17.54,5.73,29.25.64l.25-.11.3-.19a25.19,25.19,0,0,0,7.56-7.1,17.66,17.66,0,0,0,3-11.6,28.07,28.07,0,0,0-4.69-12.45c-5.38-8.45-15.6-17.9-30.82-28.06-18.08-12.07-33.36-19.53-45.56-22.77C283.44,574,273.15,575.63,266.79,582.08Zm103,56.71a14.67,14.67,0,0,1,.56,2.87,9.72,9.72,0,0,1-1.62,6.42,16.92,16.92,0,0,1-4.89,4.61,23.54,23.54,0,0,1-9.81,1.6Zm-14.64-19A83.74,83.74,0,0,1,362,626.5l-27.88,22.75c-1.95-.81-4-1.73-6-2.74ZM337.5,606.55l-31.09,27.24-2.79-1.89-2-1.39,28.88-28.45Q333.93,604.18,337.5,606.55Zm-26.94-15.39-27.19,24.4c-1.39-1.36-2.67-2.71-3.83-4l23.69-23.46C305.57,589,308,590,310.56,591.16Z" transform="translate(-51.38 -19.02)"/><path class="cls-11" d="M208.17,421.3l-.41.49q-19.63,23.49-27.18,58.08-22.89-8-36.32-5Q128,478.39,125.41,496.5l-.21,1.42.76,1.23q10,16.27,30.36,35.05,20.18,18.56,50.73,39.74l.23.16.24.12q11.23,5.71,20.42-3.65,7.67-7.85,13.49-27.09,4.26-5.18,7.85-10.54a52.92,52.92,0,0,0,11.19,11,61.83,61.83,0,0,0,10,5.89q-15.23,6.84-20.9,24.1a61.72,61.72,0,0,0-1.66,6.25q-4,18.43,12.19,37.83,15.34,18.39,49.39,38,34.22,19.9,56.07,16.5,22.89-3.56,31.54-31.46a89,89,0,0,0,3.51-15c22.13,13.95,42.05,13.32,60.14.39,6.89-4.92,13.47-11.68,19.76-20.13a70.21,70.21,0,0,0,12.89,7.47A52.5,52.5,0,0,0,510.14,618l1.86.16,1.32-1.34A300.25,300.25,0,0,0,567.17,543a46.9,46.9,0,0,0,8.54-18l1-2.45q22.38-52.73,26.15-116.68l0-.5-.08-.43q-2.55-14.53-16.63-24.63-12.66-9.09-34.75-14.52a15.22,15.22,0,0,0-4.11-7.47q14-23.89,16.09-46.49c1.6-17.44-2.12-34.26-11.23-50.58a109.52,109.52,0,0,0-.66-27.67c-2.46-15.26-8.6-28-18.29-35.92l-1.17-.95-1.52.05a30.76,30.76,0,0,0-16.6,6,62.73,62.73,0,0,0-13.32,13.08q-23.52-10.12-46.84-10.35c-5.47-9-10.82-16.23-17.09-21-7.14-5.44-15.23-7.71-25.55-5.95l-.27.05-.29.09c-12.4,4.07-14.09,21.72-15.77,39.29l-.31,3.19q-6.48,3.53-12.93,7.82l-.27.19-.2.18a43.87,43.87,0,0,0-5.87,6.48,38.62,38.62,0,0,0-3.85,6.55q-20.46,20-25.58,43-4.78,21.42,3.9,45a7.73,7.73,0,0,0-1.43,1.13l-.71.71-.3.94a48.78,48.78,0,0,0-2.23,11,66.8,66.8,0,0,0,.53,13.71l.18,1.48,1.11,1q4.68,4.26,9.62,8.14C342.39,378,331,391.29,322.61,406.85c-.66,1.24-1.3,2.48-1.93,3.75-.6-.74-1.16-1.47-1.67-2.2a26.87,26.87,0,0,1-3.24-6q-5.56-15.24-11.71-23.09-6.94-8.88-15.07-8.92h-.37l-.35.06a36.67,36.67,0,0,0-7.23,2.08q-.81-12.3-1.59-24.61l-2.13-.14q-7-.46-14.18-.29l1.08-45.89a2.51,2.51,0,0,1,.73-1.4,3.78,3.78,0,0,1,1.66-1l32.9-1.8.67-1a11.55,11.55,0,0,0,1.92-5.89,6.19,6.19,0,0,0-2.48-5.15l-.7-.53c-12.12.61-24.64.95-36.7,1.86a10.24,10.24,0,0,0-6.4,3.32,16.63,16.63,0,0,0-3.85,7.06l-.06.24-1.14,50.92-3,.31q-6.94.77-14.09,2.08c0-.32,0-.65,0-1v-.06a30.65,30.65,0,0,0-29.88-31.33h-.06a30.65,30.65,0,0,0-31.33,29.88v.06a30.63,30.63,0,0,0,29.88,31.33h.06a30.55,30.55,0,0,0,9.18-1.19,31.4,31.4,0,0,0,5.14-2q1,8.15,2.18,16.14l-.13.14q-3.95,4.36-4.68,11.86a51.22,51.22,0,0,0,.68,13.18,58.22,58.22,0,0,0-6.05,3.3Zm297,165.11q-1.17,13.86,4.7,22.42l-.93.95a44.9,44.9,0,0,1-12.34-3.5,62,62,0,0,1-11.48-6.67c8.55-12.91,16.56-29,24.09-48q2.75.84,5.39,1.53Q506.38,572.6,505.2,586.41Zm10.43,16.34q-3.21-6-2.38-15.68,1.1-13,9.39-32.12Q540,558.11,552,553.78A292.13,292.13,0,0,1,515.63,602.75ZM578.16,496a299.13,299.13,0,0,0-5.07-45.12,17,17,0,0,0,7.36,3.36,14.68,14.68,0,0,0,8.66-1.05A330.27,330.27,0,0,1,578.16,496Zm8.47-104.86a28.09,28.09,0,0,1,8.21,14.8q-1.07,17.63-3.57,34.37a12.88,12.88,0,0,1-4.74,5.17,7,7,0,0,1-4.66.85,9.77,9.77,0,0,1-5-2.85c-2.6-2.58-4.82-6.72-6.13-12.44-3.25-14.14-2.25-25.6,1.27-32.93a17.46,17.46,0,0,1,3.84-5.37,9.64,9.64,0,0,1,4.36-2.37A10.33,10.33,0,0,1,586.63,391.15Zm-38.94-6.86,1.17-.6.6-1.19a23.16,23.16,0,0,0,1.33-3.2,26.14,26.14,0,0,0,1.14-5.05,104.48,104.48,0,0,1,23.94,9.07,18.17,18.17,0,0,0-5.46,3.47,25.12,25.12,0,0,0-5.67,7.86c-2.42,5-3.88,11.52-4,19.13q-9-17-22.56-25Q543,386.69,547.69,384.29ZM563,462.8a63,63,0,0,0-12.72-1.18,77,77,0,0,0-15.94,1.76,65.87,65.87,0,0,1-1.72-7.1q-1.18-6.11-2-14.41,10.32-6.92,26.59-2.31a56.27,56.27,0,0,1,4.19,11.3A55.07,55.07,0,0,1,563,462.8ZM505.7,222.53a58.06,58.06,0,0,1,12.89-13.15A24,24,0,0,1,529.35,205c7.43,6.72,12.22,17.25,14.27,29.93,2.12,13.17,1.26,28.57-2.66,44.43a13.56,13.56,0,0,1-1.49-.3,21.27,21.27,0,0,1-3.73-1.35c6.71-31.1-3.4-59.66-14.33-60.86q-5.7,1.29-14.94,20.2a44.46,44.46,0,0,1-1.19-7.62A25.86,25.86,0,0,1,505.7,222.53Zm-8.28.67a35.85,35.85,0,0,0-.18,6.67c.64,10.6,5.45,23,12.32,33.45q-17.34-14.26-42.88-20.67a46,46,0,0,1,10.11-9.72A75.29,75.29,0,0,1,497.05,223Zm-11.81-4.42a75.41,75.41,0,0,0-13.52,7.59,52.61,52.61,0,0,0-13.91,14.41l-2.68-.49a209.76,209.76,0,0,0-34.73-2.85,27.32,27.32,0,0,1,8.36-11.52q8.6-7.32,24.68-12.38A108.43,108.43,0,0,1,485.61,218.78Zm-53.76-27.9c4.47,3.41,8.54,8.51,12.68,14.91-.81.06-1.61.13-2.42.21a113.84,113.84,0,0,0-18.25,3.31c-1-6.78-2.6-12.18-4.56-16a16.71,16.71,0,0,0-5.51-6.62l-.51-.31C420.8,185.24,426.69,187,431.85,190.88Zm-45.47,44.6q20.85-13.87,41.84-19a50.18,50.18,0,0,0-4.33,3.3q-9,7.69-11.55,17.73-14.19.38-29.9,2.18A37.8,37.8,0,0,1,386.38,235.48ZM353.7,287.1q4.55-20.34,22.94-38.56,45-5.94,77.51-.3T506.22,271c.37.33.67.61.91.85,8.43,8.31,12.24,22.53,11.78,37.19s-5.28,29.86-14.09,39.65c-.44.5-.84.93-1.19,1.28-11.78,12-33.57,16.34-59.54,12.92-15.37-2-80.48-24.18-86.2-33.82Q349.3,306.88,353.7,287.1Zm-.25,68.28a56.75,56.75,0,0,1-.33-10.62c.08-.95.19-1.86.33-2.76a83.89,83.89,0,0,0,11.87,10.07c6.95,4.92,18.79,11.86,29,14.15-12.86-8-26-18-36.43-28.88,28.63,19,58.78,30.1,85.13,33.57,28.46,3.75,52.71-1.44,66.32-15.26.55-.55,1-1.06,1.44-1.52,10.1-11.23,15.63-28.24,16.14-44.83.37-11.89-1.84-23.66-6.79-33.05,5.44,5.25,11.41,9.1,17.36,10.59,5.79,1.46,9,1.34,10.42-2.29q1.24-4.57,2.16-9.09a75.69,75.69,0,0,1,5.35,35.68q-2.22,24.19-19.56,50.45c-20.24,23.9-87,18.11-99.13,17.79,47,9.57,83.87,4.5,104.63-11.89l.53-.41.34-.52.61-.93a10.63,10.63,0,0,1,.87,2.5,16.77,16.77,0,0,1-.58,8.62c-.11.32-.23.64-.36,1-32.18,16.09-66.8,21.9-99.73,18A162.65,162.65,0,0,1,353.45,355.38Zm-23.74,55.29c8.24-15.32,19.58-28.23,33.68-37.08a171,171,0,0,0,78.73,30.12,182.41,182.41,0,0,0,86.1-10.81q18.76,7.37,29.25,32.93,1.2,2.93,2.29,6.08-21.88-6.32-35.9,4.92l-1.69,1.36.2,2.15q1,10.32,2.35,17.46a57.53,57.53,0,0,0,3.42,12l1.4,3.16,3.33-.89a69,69,0,0,1,17.46-2.37,49.45,49.45,0,0,1,15.38,2.16l2.6.85q1.5,13.26,2,28.64a90.13,90.13,0,0,1-2.21,21q-3.61,8.26-7.7,16.25a25.76,25.76,0,0,1-6.34,5.39q-14.67,8.81-43.55-.35c4.42-3.6,9.34-13.9,7.9-19-.39,2-4.16,7.9-6.16,9.72,1.46-5.89,1.54-9.45-.95-17.66a47.93,47.93,0,0,1-12.38,25.16,29,29,0,0,1-12.8,5.63,43,43,0,0,1-21.36-1.62,38.09,38.09,0,0,1-17.56-11.65,27.49,27.49,0,0,1-5.68-11.75c1.7-20.93,20-32.9,15.44-31.9-7.44,3.32-17.06,10.84-20.08,17.58q.89-6.47,7.32-13.72Q461,480,484.7,481c16.28.68,40.62,8.9,61.82,20.41-12.42-16.33-25-21.91-45.34-26.31a68.06,68.06,0,0,1-5-23.11c4.17-8.25,19-24.59,14.92-23.34-4.14.24-10,5.13-13.07,8.14.88-8.78,4.07-18.27,8-26.67-20.12,17.82-21.77,40.33-14.05,63.42q-3.58-.43-7-.58-26.94-1.12-46.24,15.52l-.16.14-.2.22q-17.24,19.25-4.7,35.61A35.46,35.46,0,0,0,441,539.28a46.21,46.21,0,0,0,21.28,14.2,51.16,51.16,0,0,0,25.4,1.91,38.4,38.4,0,0,0,13.53-5.27c-13.57,33.79-28.47,57.78-45.09,69.65-16.1,11.51-34.15,11.3-54.6-2.9,0-.71.07-1.44.09-2.16A119.53,119.53,0,0,0,399,587q7.91-23.32,8.82-43.93c6-4.18,9.28-21.28,3.73-32.33.26,6.37-3.11,18.19-4.22,15.32C406,513.82,402,506.32,392.4,499.49c4.45,11.42,7.83,28.41,7.39,41.88s-3.38,28.29-8.82,44.07l-.36,1,.24,1.09a113,113,0,0,1,2.69,26.91A87.66,87.66,0,0,1,392,628.78a58.12,58.12,0,0,0-12.76-23c-16.29-18.72-35.22-28-58.77-33,24.14,9.92,42,26,52.69,38.29q15.12,17.37,11.92,38.05-7.38,13.32-20.72,15.4-19,3-50.79-15.53h0q-32.76-18.84-47.23-36.18-11.58-13.86-11.06-26.48,2.76-11.34,13.4-15c7.93-2.73,22.9-5.55,37.34-2.41-3.9-3.49-25.93-11.26-42.2-4.36a29.35,29.35,0,0,1,12.16-8.26q14.52-5.38,39-.29c8.93,1.86,20.71,3.61,29.93,4.68-7-5-21.38-11.12-28.29-12.56-3.26-.68-6.42-1.23-9.46-1.65-.46-20.66-.29-37.73.75-50.79.21-2.62.44-5.05.71-7.3,5.81,3.93,23.8,1.09,19.54.5-5.89.46-22.84-7.33-14.75-18.35,6.67-7.07,13.6-12,20.61-15a42.77,42.77,0,0,1,28.09-2.19A54.49,54.49,0,0,1,377,459.75q4.25,11.55-1.87,17.11c-4.93,4.48-17.31,9.94-32.67,11.32,4.15,3.64,27.18,4.56,38.1-5.35A18.82,18.82,0,0,0,386.8,467c.86.75,1.71,1.51,2.55,2.31,11.4,10.71,26.75,29.17,34.74,47.78-.67-13.8-2.69-18.43-10.29-30.38Q437.91,448,435.6,427l-.08-.7-.27-.58q-5.58-12-24.24-20.87-17.77-8.46-48-14.39l-.68-.13-.68.1q-14.54,2.18-27.92,21.36a169.24,169.24,0,0,0-15.26,28.08A128,128,0,0,1,329.71,410.67Zm-8,42.29q9.22-23.11,18.62-36.58,11.06-15.86,21.85-17.88,28.68,5.69,45.36,13.62,15.52,7.39,20.11,16.41,1.44,17.48-18.83,50.9a114.67,114.67,0,0,0-14-16c-9.57-9-20-15.17-30.82-17.95a50.7,50.7,0,0,0-33.26,2.58A59.82,59.82,0,0,0,321.72,453Zm-43.66-69.22a22.56,22.56,0,0,1,11.23-5.29q4.06.23,8.43,5.81,5.36,6.83,10.48,20.9h0a34.56,34.56,0,0,0,4.22,7.87,50.43,50.43,0,0,0,4.62,5.6,142.83,142.83,0,0,0-8.6,29.69q-10.29-10.06-18.27-17.18l-1.06-.93c6.66-1,8.72-5,8.79-9.54-8.37,2.66-15.81,2.66-19,.93-2.05-1.12-3-3.65-2.88-7.57l.54-.11c9.95-2.08,16.16-15.7,12.28-20.11-2.3,5.83-9.84,11.37-13.92,12.23-8.53,1.78-4.84-3.46-3.76-8.75l.52-2.54A22.87,22.87,0,0,1,278.06,383.74Zm19.07-94a1.86,1.86,0,0,1,.14.75,5.5,5.5,0,0,1-.59,2.25l-27.35,1.49-.17-3.08Zm-29.58,1.5.17,3.08-.91.05-.53-3.07Zm-4.89.24,2-.1.56,3.22a6,6,0,0,0-.75.26l-1.94-3.36Zm-3.34,1.84A6.36,6.36,0,0,1,261,292L263,295.6a8,8,0,0,0-1,.73l-3.16-2.49ZM258,295.16l3,2.34a7.25,7.25,0,0,0-.86,1.38l-3.23-1.17A12.23,12.23,0,0,1,258,295.16Zm-1.26,4.22,2.83,1q-.07.35-.12.69c-.07.73-.14,1.47-.2,2.22l-2.58-.6Zm-.11,5,2.49.59c-1,13.08-.55,29.48-.77,42.73l-2.69.16Zm-8.27,49a165,165,0,0,1,26.58-.86L276.36,375a28.14,28.14,0,0,0-3.73,2.86,30.2,30.2,0,0,0-8.3,13.46,25.43,25.43,0,0,0-12.76-4.51q-11.07-1.14-28.06,3.81c-.75-5.26-1.43-10.3-2-15.15q-1-8.39-1.94-16.75A207.49,207.49,0,0,1,248.31,353.34Zm15,58.26c.07.85.12,1.74.15,2.68v.27q-23-5.46-41,.12a40.15,40.15,0,0,1-.35-9.41,13.73,13.73,0,0,1,2-6.46q16.62-5.07,26.64-4,8.12.84,11.48,5.83c-.31,1.28-.65,2.54-1.17,4.26l-.08.27,0,.31A6.59,6.59,0,0,0,263.32,411.6Zm-47-57.08-2,.53.21,2.05q.72,6.84,1.59,14.08a25.75,25.75,0,0,1-13.64,3.5h-.06a25.82,25.82,0,0,1-25.1-26.44v-.07a25.82,25.82,0,0,1,26.45-25.1h.06a25.81,25.81,0,0,1,25.1,26.45v.06c0,.64-.06,1.3-.13,2v0Q222.61,352.85,216.29,354.52Zm48.19,68.59a38.6,38.6,0,0,1,1.31,4c1,3.65,1,6.56.21,8.74-4,10.59-40.36,12.38-50.1.37,1.34,14.14,16.2,18,44.75,12.7l.28-.06a26.05,26.05,0,0,0,3.56-1.21,15.72,15.72,0,0,0,9.05-9,20,20,0,0,0,.73-10.41q4.62,3.63,10.54,8.89,9.58,8.55,22.21,21.07-.45,4.13-.69,8.3c-3.35,5.25-5.44,14.88-6.52,28.49-1,13-1.21,30-.76,50.61a76.46,76.46,0,0,0-15.56.49,60.08,60.08,0,0,1-18.29-8.73,44.24,44.24,0,0,1-10.32-10.48,68,68,0,0,0,17.76-15.43c5.81-7.32,9.63-23.94,7.15-28.82-2.26,8.25-8.45,17.59-13.42,23.78a56.19,56.19,0,0,1-6.49,6.8q1.71-4.11,3.05-8.3c6.23-19.52,6.88-39.24-1.13-46.42,1.43,14.06-2.46,31.25-6.53,44a100.72,100.72,0,0,1-8.94,20l-1.79,3A122.61,122.61,0,0,1,234.71,539l-.54.64-.24.8q-3.77,12.68-8.07,19.67a162,162,0,0,0-14.92-17.34c-7.94-8.17-25.93-23.23-36.55-26.7,12.42,10.58,22.78,24.08,30.78,32.32a143.64,143.64,0,0,1,15.3,18,8.31,8.31,0,0,1-9.1.72q-29.87-20.71-49.59-38.87Q143,511,133.62,496.2c.76-4,4.27-8.52,6.57-10.81,4.23,3.35,16.56,15.45,15,12.28-1.52-6.94-3.47-10.17-9.2-14.95q12.3-2.64,35.81,6.16c8.65,5.16,20.42,12.23,27.15,21.18.55-9.12-6.25-17.4-20.89-26.78q6.93-33.4,25.43-55.82Q234,415,264.48,423.11Z" transform="translate(-51.38 -19.02)"/></svg>